<svg xmlns="http://www.w3.org/2000/svg" width="79" height="79" viewBox="0 0 79 79"><defs><style>.a{fill:none;}.b{opacity:0.08;mix-blend-mode:multiply;isolation:isolate;}.c{fill:#fff;}.d{fill:#5698f5;}.e{fill:#5598f5;}.f{fill:#5494f0;}</style></defs><g transform="translate(-0.218 0.023)"><rect class="a" width="79" height="79" transform="translate(0.218 -0.023)"/><g transform="translate(8.801 10.158)"><g transform="translate(0)"><g class="b" transform="translate(2.22 1.11)"><circle cx="24.041" cy="24.041" r="24.041" transform="translate(0 46.795) rotate(-76.717)"/></g><circle class="c" cx="24.041" cy="24.041" r="24.041" transform="translate(0 46.795) rotate(-76.717)"/></g><g transform="translate(18.861 18.861)"><path class="d" d="M1507.932,102.741c-1.475-.022-2.95-.01-4.423-.077a5.688,5.688,0,0,1-3.713-1.5,5.312,5.312,0,0,1-1.469-2.4,11.65,11.65,0,0,1-.378-2.937c-.1-2.166-.107-4.331.007-6.5a15.754,15.754,0,0,1,.263-2.433,4.824,4.824,0,0,1,2.886-3.572,7.487,7.487,0,0,1,2.472-.582c2.353-.2,4.71-.11,7.064-.1a18.52,18.52,0,0,1,2.324.178,5.517,5.517,0,0,1,3.594,1.821,4.745,4.745,0,0,1,1.1,2.307,17.134,17.134,0,0,1,.238,2.073,69.322,69.322,0,0,1,0,7.254,13.246,13.246,0,0,1-.25,2.14,5.03,5.03,0,0,1-3.084,3.743,7.236,7.236,0,0,1-2.883.529c-1.25,0-2.5,0-3.749,0Zm-.013-2.333c1.34-.026,2.671-.047,4-.075a5.721,5.721,0,0,0,1.812-.319,2.813,2.813,0,0,0,1.8-1.774,6.25,6.25,0,0,0,.291-1.956c.04-1.86.069-3.721.063-5.581a16.176,16.176,0,0,0-.242-3.338,2.8,2.8,0,0,0-1.833-2.142,6.208,6.208,0,0,0-2.238-.365q-3.646-.017-7.294,0a6.472,6.472,0,0,0-2.041.3,2.849,2.849,0,0,0-1.913,1.818,5.908,5.908,0,0,0-.284,1.854c-.041,1.981-.07,3.963-.062,5.944a14.61,14.61,0,0,0,.241,3.1,2.755,2.755,0,0,0,1.341,1.881,4.778,4.778,0,0,0,2.286.578C1505.208,100.371,1506.568,100.383,1507.918,100.408Z" transform="translate(-1497.872 -82.621)"/><path class="e" d="M1502.488,92.355a4.988,4.988,0,0,1,3.176-4.669,4.886,4.886,0,0,1,5.98,2.189,5.024,5.024,0,0,1-2.435,7.118,4.929,4.929,0,0,1-6.721-4.639Zm7.736-.007a2.838,2.838,0,1,0-2.809,2.9A2.857,2.857,0,0,0,1510.224,92.348Z" transform="translate(-1497.365 -82.099)"/><path class="f" d="M1510.69,87.527a1.132,1.132,0,0,1,1.14-1.139,1.148,1.148,0,0,1-.019,2.3A1.131,1.131,0,0,1,1510.69,87.527Z" transform="translate(-1496.463 -82.207)"/></g></g></g></svg>