<svg xmlns="http://www.w3.org/2000/svg" width="78" height="79" viewBox="0 0 78 79"><defs><style>.a{fill:none;}.b{opacity:0.08;mix-blend-mode:multiply;isolation:isolate;}.c{fill:#fff;}.d{fill:#5d98fe;}</style></defs><g transform="translate(-0.46 0.023)"><rect class="a" width="78" height="79" transform="translate(0.46 -0.023)"/><g transform="translate(4.115 4.608)"><g class="b" transform="translate(2.22 1.11)"><circle cx="24.041" cy="24.041" r="24.041" transform="translate(0 33.999) rotate(-45)"/></g><circle class="c" cx="24.041" cy="24.041" r="24.041" transform="translate(0 33.999) rotate(-45)"/><path class="d" d="M1452.517,94.153v.274q0,5.732,0,11.466c0,.206.053.272.269.27q2.091-.015,4.182,0c.214,0,.266-.063.265-.271q-.008-5.722,0-11.446c0-.093.009-.186.015-.293h.378c1.394,0,2.788,0,4.182,0,.2,0,.259-.053.258-.256-.009-1.179,0-2.359-.006-3.537,0-.3,0-.3-.3-.3q-2.164,0-4.329,0c-.124,0-.208-.006-.206-.172.01-.887.005-1.776.016-2.663a1.745,1.745,0,0,1,.276-.925.537.537,0,0,1,.451-.282c.34-.02.678-.048,1.018-.053q1.4-.018,2.809-.018c.184,0,.253-.058.253-.252q-.005-1.935.011-3.87c0-.169-.056-.21-.215-.209-1.2.008-2.4,0-3.6.016a6.991,6.991,0,0,0-1.3.127,5.083,5.083,0,0,0-2.755,1.606,5.975,5.975,0,0,0-1.644,3.984c-.022.825-.024,1.649-.021,2.475,0,.2-.065.24-.251.239-1.22-.008-2.441,0-3.662-.008-.177,0-.243.042-.241.232q.01,1.82,0,3.642c0,.178.062.221.23.22,1.22-.006,2.441,0,3.662,0Z" transform="translate(-1421.209 -58.375)"/></g></g></svg>