<svg xmlns="http://www.w3.org/2000/svg" width="79" height="79" viewBox="0 0 79 79"><defs><style>.a{fill:none;}.b{opacity:0.08;mix-blend-mode:multiply;isolation:isolate;}.c{fill:#fff;}.d{fill:#569ffe;}</style></defs><g transform="translate(0.023 0.023)"><rect class="a" width="79" height="79" transform="translate(-0.023 -0.023)"/><g transform="translate(9.049 10.158)"><g transform="translate(0)"><g class="b" transform="translate(2.22 1.11)"><circle cx="24.041" cy="24.041" r="24.041" transform="translate(0 46.795) rotate(-76.717)"/></g><g transform="translate(0)"><circle class="c" cx="24.041" cy="24.041" r="24.041" transform="translate(0 46.795) rotate(-76.717)"/></g></g><path class="d" d="M1560.58,99.754c-1.681-.044-3.523-.073-5.363-.147-.96-.039-1.92-.129-2.875-.246a2.786,2.786,0,0,1-2.523-2.443,28.948,28.948,0,0,1-.346-4.916,30.65,30.65,0,0,1,.229-4.023,6.551,6.551,0,0,1,.274-1.347,2.644,2.644,0,0,1,2.264-1.858c1-.13,2.009-.215,3.017-.255,1.7-.068,3.407-.11,5.11-.112,1.592,0,3.186.044,4.776.1.957.033,1.911.12,2.865.2a4.172,4.172,0,0,1,1.373.3A2.749,2.749,0,0,1,1571,87.1a18.747,18.747,0,0,1,.312,2.644,36.249,36.249,0,0,1,.034,3.872,20.738,20.738,0,0,1-.381,3.561,2.684,2.684,0,0,1-2.381,2.182c-1.012.12-2.031.208-3.05.253C1563.936,99.684,1562.337,99.706,1560.58,99.754Zm3.37-7.682-5.708-3.294v6.574Z" transform="translate(-1531.505 -63.159)"/></g></g></svg>